<svg width="21" height="22" viewBox="0 0 21 22" fill="none" xmlns="http://www.w3.org/2000/svg">
<path d="M14.2083 16.3237V16.3782C14.2083 17.203 13.8841 17.994 13.3071 18.5772C12.73 19.1604 11.9474 19.4881 11.1313 19.4881C10.3152 19.4881 9.53259 19.1604 8.95554 18.5772C8.37849 17.994 8.05431 17.203 8.05431 16.3782V16.3237" stroke="white" stroke-width="0.857948" stroke-linecap="round" stroke-linejoin="round"/>
<path d="M18.4237 11.7054V15.1574C18.4198 15.4628 18.2991 15.7549 18.0869 15.9723C17.8746 16.1897 17.5873 16.3156 17.2852 16.3236H4.97721C4.67511 16.3156 4.38781 16.1897 4.17556 15.9723C3.96331 15.7549 3.84259 15.4628 3.83871 15.1574V11.581C3.83858 10.6026 4.0312 9.63386 4.40536 8.73142C4.77951 7.82899 5.32771 7.01088 6.01797 6.32481C6.70823 5.63875 7.52674 5.09846 8.42577 4.73546C9.32479 4.37246 10.2863 4.19401 11.2543 4.21052C13.1813 4.26535 15.0105 5.08035 16.3504 6.48111C17.6903 7.88187 18.4345 9.75708 18.4237 11.7054V11.7054Z" stroke="white" stroke-width="1.28692" stroke-miterlimit="10"/>
<path d="M14.6689 10.5858C14.6689 9.72598 14.3309 8.90135 13.7293 8.29334C13.1277 7.68533 12.3118 7.34375 11.4611 7.34375" stroke="white" stroke-width="1.28692" stroke-linecap="round" stroke-linejoin="round"/>
<path d="M11.231 4.2106V2.3291" stroke="white" stroke-width="1.28692" stroke-linecap="round" stroke-linejoin="round"/>
</svg>
