<svg width="15" height="7" viewBox="0 0 15 7" fill="none" xmlns="http://www.w3.org/2000/svg">
<path d="M0.260547 3.53301C0.0932443 3.70031 0.0932443 3.97156 0.260547 4.13887L2.98691 6.86523C3.15421 7.03253 3.42546 7.03253 3.59277 6.86523C3.76007 6.69793 3.76007 6.42667 3.59277 6.25937L1.16933 3.83594L3.59277 1.4125C3.76007 1.2452 3.76007 0.973949 3.59277 0.806646C3.42546 0.639343 3.15421 0.639343 2.98691 0.806646L0.260547 3.53301ZM14.2725 4.26434C14.5091 4.26434 14.7009 4.07254 14.7009 3.83594C14.7009 3.59934 14.5091 3.40753 14.2725 3.40753V4.26434ZM0.563477 4.26434H14.2725V3.40753H0.563477V4.26434Z" fill="#A7AEBF"/>
</svg>
