<svg width="18" height="18" viewBox="0 0 18 18" fill="none" xmlns="http://www.w3.org/2000/svg">
<path d="M7.54529 7.10914L7.54529 14.7955C7.54529 15.553 8.1594 16.1671 8.91694 16.1671H9.04968C9.80723 16.1671 10.4213 15.553 10.4213 14.7955V7.10914C10.4213 6.35159 9.80723 5.73748 9.04968 5.73748H8.91694C8.1594 5.73748 7.54529 6.35159 7.54529 7.10914Z" stroke="#787A8D" stroke-width="1.28" stroke-linecap="round" stroke-linejoin="round"/>
<path d="M13.0573 3.6326V14.7955C13.0573 15.553 13.6714 16.1671 14.429 16.1671H14.5617C15.3193 16.1671 15.9334 15.553 15.9334 14.7955V3.6326C15.9334 2.87505 15.3193 2.26094 14.5617 2.26094H14.429C13.6714 2.26094 13.0573 2.87505 13.0573 3.6326Z" stroke="#787A8D" stroke-width="1.28" stroke-linecap="round" stroke-linejoin="round"/>
<path d="M2.03345 11.3063L2.03345 14.7955C2.03345 15.553 2.64756 16.1671 3.4051 16.1671H3.53784C4.29539 16.1671 4.9095 15.553 4.9095 14.7955V11.3063C4.9095 10.5487 4.29539 9.93462 3.53784 9.93462H3.4051C2.64756 9.93462 2.03345 10.5487 2.03345 11.3063Z" stroke="#787A8D" stroke-width="1.28" stroke-linecap="round" stroke-linejoin="round"/>
</svg>
