<svg width="18" height="18" viewBox="0 0 18 18" fill="none" xmlns="http://www.w3.org/2000/svg">
<path d="M8.96003 12.5706C10.3494 12.5706 11.4758 11.4442 11.4758 10.0548C11.4758 8.6654 10.3494 7.53906 8.96003 7.53906C7.57062 7.53906 6.44427 8.6654 6.44427 10.0548C6.44427 11.4442 7.57062 12.5706 8.96003 12.5706Z" stroke="#F5C249" stroke-width="1.28" stroke-miterlimit="10"/>
<path d="M15.9129 12.9309C15.9129 13.6943 15.6101 14.4265 15.071 14.9669C14.5318 15.5072 13.8003 15.8116 13.0369 15.8133H4.88282C4.11947 15.8116 3.38795 15.5072 2.84877 14.9669C2.30958 14.4265 2.00677 13.6943 2.00677 12.9309V9.56818C2.00863 8.80561 2.31064 8.07443 2.84747 7.53282L6.9245 3.4621C7.19163 3.19453 7.5089 2.98226 7.85814 2.83742C8.20739 2.69259 8.58177 2.61804 8.95986 2.61804C9.33795 2.61804 9.71233 2.69259 10.0616 2.83742C10.4108 2.98226 10.7281 3.19453 10.9952 3.4621L15.0723 7.53282C15.6091 8.07443 15.9111 8.80561 15.9129 9.56818V12.9309Z" stroke="#F5C249" stroke-width="1.28" stroke-miterlimit="10"/>
</svg>
