<svg width="18" height="18" viewBox="0 0 18 18" fill="none" xmlns="http://www.w3.org/2000/svg">
<path d="M15.0118 9.70084C15.0106 10.9795 14.6303 12.2291 13.919 13.2916C13.2077 14.3542 12.1973 15.182 11.0156 15.6705C9.83395 16.1589 8.53398 16.2861 7.28005 16.0359C6.02611 15.7857 4.8745 15.1693 3.9708 14.2647C3.06709 13.3601 2.45186 12.2079 2.20286 10.9537C1.95387 9.69954 2.08229 8.3997 2.5719 7.21849C3.06151 6.03728 3.89032 5.02775 4.95358 4.31749C6.01683 3.60724 7.26678 3.22815 8.54544 3.22815V9.70084H15.0118Z" stroke="#787A8D" stroke-width="1.28" stroke-linecap="round" stroke-linejoin="round"/>
<path d="M15.9664 6.91955H11.2509V2.26099C12.3886 2.53012 13.4304 3.10712 14.2621 3.9288C15.0938 4.75048 15.9838 5.78516 16.2667 6.91955H15.9664Z" stroke="#787A8D" stroke-width="1.28" stroke-linecap="round" stroke-linejoin="round"/>
</svg>
