<svg width="21" height="22" viewBox="0 0 21 22" fill="none" xmlns="http://www.w3.org/2000/svg">
<g clip-path="url(#clip0_1_1320)">
<path d="M15.4685 9.94265C15.4585 10.9489 15.1963 11.9365 14.7059 12.8152C14.1481 13.8343 13.3101 14.6723 12.2909 15.2302C11.1273 15.8551 9.79071 16.0807 8.48643 15.8724C7.18215 15.6641 5.98231 15.0334 5.07118 14.0772C4.16005 13.121 3.58803 11.8921 3.44295 10.5793C3.29787 9.26644 3.58777 7.9423 4.26812 6.81019C4.94847 5.67809 5.98165 4.80063 7.20898 4.31258C8.4363 3.82453 9.78991 3.75287 11.0619 4.10862C12.3339 4.46436 13.454 5.22783 14.25 6.28178C15.0461 7.33572 15.4742 8.62185 15.4685 9.94265Z" stroke="white" stroke-width="1.28692" stroke-miterlimit="10" stroke-linecap="square"/>
<path d="M16.8794 17.4037C16.7234 17.5611 16.5378 17.686 16.3333 17.7713C16.1287 17.8565 15.9094 17.9004 15.6878 17.9004C15.4662 17.9004 15.2468 17.8565 15.0423 17.7713C14.8378 17.686 14.6522 17.5611 14.4962 17.4037L12.2909 15.2303C13.3101 14.6725 14.1481 13.8344 14.7059 12.8153L16.8794 14.9951C17.0406 15.1515 17.1688 15.3387 17.2564 15.5456C17.3439 15.7525 17.389 15.9748 17.389 16.1994C17.389 16.4241 17.3439 16.6464 17.2564 16.8533C17.1688 17.0602 17.0406 17.2473 16.8794 17.4037V17.4037Z" stroke="white" stroke-width="1.28692" stroke-linecap="round" stroke-linejoin="round"/>
<path d="M6.49507 9.67575C6.49507 8.97121 6.77495 8.29553 7.27313 7.79735C7.77131 7.29916 8.447 7.01929 9.15153 7.01929" stroke="white" stroke-width="1.28692" stroke-linecap="round" stroke-linejoin="round"/>
</g>
<defs>
<clipPath id="clip0_1_1320">
<rect width="17.159" height="17.159" fill="white" transform="translate(1.80486 2.3291)"/>
</clipPath>
</defs>
</svg>
