<svg width="18" height="18" viewBox="0 0 18 18" fill="none" xmlns="http://www.w3.org/2000/svg">
<path d="M10.6202 3.17752L11.0437 3.91707C11.2036 4.19647 11.4346 4.42849 11.7133 4.5895C11.992 4.75051 12.3084 4.83474 12.6303 4.83362H13.4647C13.7855 4.83232 14.1009 4.91581 14.3791 5.07565C14.6572 5.23549 14.8882 5.46598 15.0486 5.7438C15.209 6.02162 15.2931 6.3369 15.2925 6.6577C15.2918 6.9785 15.2064 7.29343 15.0449 7.5706L14.6151 8.30384C14.4536 8.58229 14.3685 8.89848 14.3685 9.22038C14.3685 9.54229 14.4536 9.85847 14.6151 10.1369L15.0449 10.8702C15.2049 11.1472 15.289 11.4614 15.2888 11.7813C15.2887 12.1012 15.2042 12.4154 15.044 12.6922C14.8838 12.9691 14.6535 13.1988 14.3762 13.3583C14.0989 13.5178 13.7845 13.6015 13.4647 13.6008H12.6303C12.3084 13.5997 11.992 13.6839 11.7133 13.8449C11.4346 14.0059 11.2036 14.238 11.0437 14.5174L10.6202 15.2569C10.461 15.5354 10.2309 15.7669 9.95342 15.9278C9.67591 16.0888 9.3608 16.1736 9.03999 16.1736C8.71917 16.1736 8.40406 16.0888 8.12655 15.9278C7.84905 15.7669 7.61901 15.5354 7.45974 15.2569L7.03623 14.5174C6.87641 14.238 6.64538 14.0059 6.36667 13.8449C6.08795 13.6839 5.77154 13.5997 5.44966 13.6008H4.61529C4.2945 13.6021 3.97905 13.5186 3.7009 13.3588C3.42276 13.199 3.19179 12.9685 3.03138 12.6906C2.87098 12.4128 2.78684 12.0975 2.78748 11.7767C2.78812 11.4559 2.87353 11.141 3.03505 10.8638L3.46487 10.1306C3.62638 9.85215 3.71144 9.53596 3.71144 9.21406C3.71144 8.89216 3.62638 8.57597 3.46487 8.29752L3.0224 7.56428C2.86032 7.28618 2.77488 6.97008 2.77478 6.64819C2.77468 6.3263 2.85993 6.01014 3.02184 5.73194C3.18375 5.45374 3.41653 5.22344 3.69645 5.06452C3.97637 4.9056 4.29343 4.82375 4.61529 4.8273H5.44966C5.77092 4.82906 6.08691 4.74578 6.36557 4.58592C6.64422 4.42605 6.87561 4.19529 7.03623 3.91707L7.45974 3.17752C7.61901 2.89903 7.84905 2.66759 8.12655 2.50662C8.40406 2.34564 8.71917 2.26086 9.03999 2.26086C9.3608 2.26086 9.67591 2.34564 9.95342 2.50662C10.2309 2.66759 10.461 2.89903 10.6202 3.17752Z" stroke="#787A8D" stroke-width="1.28" stroke-linecap="round" stroke-linejoin="round"/>
<path d="M9.04009 11.6097C10.3632 11.6097 11.4358 10.5371 11.4358 9.21401C11.4358 7.89093 10.3632 6.81836 9.04009 6.81836C7.71701 6.81836 6.64444 7.89093 6.64444 9.21401C6.64444 10.5371 7.71701 11.6097 9.04009 11.6097Z" stroke="#787A8D" stroke-width="1.70667" stroke-linecap="round" stroke-linejoin="round"/>
</svg>
